PSF_US_stride6.mot
nRows=147
nColumns=3

name PSF_US_stride6.mot
datacolumns 3
datarows 147
range 3.290000 4.020000
endheader
time	soleus_l	med_gas_l
        3.2900000000	       34.4322894760	       36.7192917323	
        3.2950000000	       34.3365560427	       36.5960026104	
        3.3000000000	       34.1586725192	       36.3793950234	
        3.3050000000	       33.9531550030	       36.0511206754	
        3.3100000000	       33.7425487057	       35.5785406887	
        3.3150000000	       33.5921894012	       35.0832468712	
        3.3200000000	       33.5046923005	       34.6411797039	
        3.3250000000	       33.4691844976	       34.0789187577	
        3.3300000000	       33.5002869957	       33.5994499670	
        3.3350000000	       33.6062962004	       33.2828674075	
        3.3400000000	       33.7651937238	       33.1326348038	
        3.3450000000	       33.9470230667	       33.0955676384	
        3.3500000000	       34.0860444950	       33.1231521792	
        3.3550000000	       34.2356558343	       33.1579697307	
        3.3600000000	       34.3811597648	       33.1702208618	
        3.3650000000	       34.4736507699	       33.1134969494	
        3.3700000000	       34.5101562629	       32.9867411533	
        3.3750000000	       34.4826539091	       32.8157691657	
        3.3800000000	       34.4245954852	       32.6656127797	
        3.3850000000	       34.3352808907	       32.5231433568	
        3.3900000000	       34.1893607522	       32.3390623385	
        3.3950000000	       34.0244601709	       32.1427436038	
        3.4000000000	       33.8489248871	       31.9104287564	
        3.4050000000	       33.6741215636	       31.6341793973	
        3.4100000000	       33.5193873493	       31.3460358412	
        3.4150000000	       33.4005893666	       31.0992030997	
        3.4200000000	       33.2583199177	       30.7930090960	
        3.4250000000	       33.1162968576	       30.4947835772	
        3.4300000000	       32.9942329066	       30.2653790869	
        3.4350000000	       32.8861471746	       30.0970764150	
        3.4400000000	       32.7819148623	       29.9675030960	
        3.4450000000	       32.6906318104	       29.8636393716	
        3.4500000000	       32.5686573861	       29.7305732266	
        3.4550000000	       32.3384680745	       29.4877577256	
        3.4600000000	       32.0012029354	       29.1668384966	
        3.4650000000	       31.5304799312	       28.7850965167	
        3.4700000000	       31.0631436172	       28.4676644318	
        3.4750000000	       30.5705477219	       28.1888504314	
        3.4800000000	       29.8814252926	       27.8785210436	
        3.4850000000	       29.2288993566	       27.6644465329	
        3.4900000000	       28.6723570246	       27.5425832657	
        3.4950000000	       28.2444479978	       27.4775493284	
        3.5000000000	       27.9492165673	       27.4328523185	
        3.5050000000	       27.7643877451	       27.3839268911	
        3.5100000000	       27.5295258796	       27.2747906014	
        3.5150000000	       27.2222786903	       27.0770069381	
        3.5200000000	       26.8134253483	       26.7959289282	
        3.5250000000	       26.2601219424	       26.4441189969	
        3.5300000000	       25.5802027575	       26.0625074832	
        3.5350000000	       25.0095664427	       25.7816742331	
        3.5400000000	       24.3947261558	       25.5176168115	
        3.5450000000	       23.6403565333	       25.2455238190	
        3.5500000000	       23.0008038147	       25.0636269318	
        3.5550000000	       22.5132227328	       24.9730766162	
        3.5600000000	       22.2158114467	       24.9742976315	
        3.5650000000	       22.1493131223	       25.0116375609	
        3.5700000000	       22.1609029109	       25.0804634953	
        3.5750000000	       22.3089297000	       25.1765262935	
        3.5800000000	       22.5744568518	       25.2335751863	
        3.5850000000	       22.9050867708	       25.2299634707	
        3.5900000000	       23.2458738695	       25.1527636829	
        3.5950000000	       23.5251852237	       25.0413458715	
        3.6000000000	       23.8979498094	       24.8844570136	
        3.6050000000	       24.3424229499	       24.7484718650	
        3.6100000000	       24.8243331624	       24.7056550536	
        3.6150000000	       25.3542749274	       24.7684483619	
        3.6200000000	       25.9682103529	       24.9662302563	
        3.6250000000	       26.4596922913	       25.1691734886	
        3.6300000000	       26.9833421519	       25.4121011926	
        3.6350000000	       27.6330386455	       25.7283079437	
        3.6400000000	       28.2228884174	       26.0263025274	
        3.6450000000	       28.7372010556	       26.3122125284	
        3.6500000000	       29.1581971107	       26.5892940735	
        3.6550000000	       29.4497685998	       26.8171687575	
        3.6600000000	       29.6525221854	       26.9971232596	
        3.6650000000	       29.8840445071	       27.2029782628	
        3.6700000000	       30.1158326904	       27.3560237373	
        3.6750000000	       30.3705125460	       27.4395805671	
        3.6800000000	       30.6779036985	       27.4717472204	
        3.6850000000	       31.0361816741	       27.4803710114	
        3.6900000000	       31.3323656741	       27.4923532869	
        3.6950000000	       31.6968054392	       27.5278335263	
        3.7000000000	       32.1183624397	       27.6293360532	
        3.7050000000	       32.4710075635	       27.7933642908	
        3.7100000000	       32.7720427297	       28.0188508087	
        3.7150000000	       32.9587380266	       28.2065604008	
        3.7200000000	       33.1381879201	       28.4060250767	
        3.7250000000	       33.3677482818	       28.6470451179	
        3.7300000000	       33.6287471112	       28.8503701119	
        3.7350000000	       33.9474820554	       29.0249845221	
        3.7400000000	       34.3311910605	       29.1908259931	
        3.7450000000	       34.6911002743	       29.3329397955	
        3.7500000000	       34.9956330845	       29.4541389672	
        3.7550000000	       35.3653133705	       29.6154747611	
        3.7600000000	       35.6715272203	       29.7695914946	
        3.7650000000	       35.8918285032	       29.9022790425	
        3.7700000000	       36.0389371891	       30.0070055580	
        3.7750000000	       36.1336405059	       30.0762504732	
        3.7800000000	       36.1967886443	       30.1103135977	
        3.7850000000	       36.2952853745	       30.1219556740	
        3.7900000000	       36.4749307877	       30.1218376747	
        3.7950000000	       36.7426002601	       30.0919241305	
        3.8000000000	       37.0840963124	       30.0456625483	
        3.8050000000	       37.4553455928	       29.9935915720	
        3.8100000000	       37.7204975652	       29.9620553279	
        3.8150000000	       37.9171381624	       29.9485745211	
        3.8200000000	       38.0896908313	       29.9672282209	
        3.8250000000	       38.1261721351	       30.0278128569	
        3.8300000000	       38.1031275914	       30.1228053078	
        3.8350000000	       38.0596638652	       30.2245087847	
        3.8400000000	       38.0478442623	       30.2874145636	
        3.8450000000	       38.0932956878	       30.3078333463	
        3.8500000000	       38.2048041485	       30.2872643951	
        3.8550000000	       38.3915716473	       30.2233497083	
        3.8600000000	       38.5996772188	       30.1723754040	
        3.8650000000	       38.7839438492	       30.1630773250	
        3.8700000000	       38.8950489680	       30.2370032615	
        3.8750000000	       38.9339839376	       30.4094806195	
        3.8800000000	       38.9314312752	       30.7332900186	
        3.8850000000	       38.8117823847	       31.1377934848	
        3.8900000000	       38.6123497471	       31.5597905272	
        3.8950000000	       38.3437503017	       31.9375222112	
        3.9000000000	       38.0911090438	       32.1787090136	
        3.9050000000	       37.8236284450	       32.3689363124	
        3.9100000000	       37.4044730771	       32.6027482633	
        3.9150000000	       36.9428381180	       32.8733902888	
        3.9200000000	       36.4481121543	       33.2395753274	
        3.9250000000	       35.9367048431	       33.7484744612	
        3.9300000000	       35.4945610444	       34.3451900558	
        3.9350000000	       35.2007739656	       34.8666133464	
        3.9400000000	       34.9392284208	       35.5325029002	
        3.9450000000	       34.8106378597	       36.1976015524	
        3.9500000000	       34.7843068302	       36.7597913012	
        3.9550000000	       34.8479335819	       37.2420111766	
        3.9600000000	       34.9290008783	       37.6108133947	
        3.9650000000	       34.9444492290	       37.8359432079	
        3.9700000000	       34.9391633117	       38.0414325067	
        3.9750000000	       34.8321103655	       38.2716012864	
        3.9800000000	       34.6627802111	       38.4537612771	
        3.9850000000	       34.4537696018	       38.5726420067	
        3.9900000000	       34.2770824955	       38.5811243814	
        3.9950000000	       34.1274523231	       38.5411911642	
        4.0000000000	       33.9604341762	       38.3615486168	
        4.0050000000	       33.8406131620	       38.0851617852	
        4.0100000000	       33.7743274663	       37.7686356135	
        4.0150000000	       33.7580289968	       37.4754968574	
        4.0200000000	       33.7609825643	       37.2815686560	
